<?xml version="1.0" standalone="no"?>
<!DOCTYPE svg PUBLIC "-//W3C//DTD SVG 20010904//EN"
 "http://www.w3.org/TR/2001/REC-SVG-20010904/DTD/svg10.dtd">
<svg version="1.0" xmlns="http://www.w3.org/2000/svg"
 width="200.000000pt" height="200.000000pt" viewBox="0 0 200.000000 200.000000"
 preserveAspectRatio="xMidYMid meet">
<metadata>
Created by potrace 1.14, written by Peter Selinger 2001-2017
</metadata>
<g transform="translate(0.000000,200.000000) scale(0.100000,-0.100000)"
fill="#000000" stroke="none">
<path d="M551 1941 c-9 -6 -16 -32 -19 -70 l-4 -61 -92 -1 c-50 0 -100 -2
-111 -4 -82 -16 -171 -88 -206 -168 l-23 -52 0 -680 c0 -669 0 -681 21 -726
28 -63 87 -125 142 -152 l46 -22 695 0 695 0 47 24 c65 33 106 76 137 141 l26
55 -1 680 0 680 -25 55 c-54 116 -141 166 -293 169 -49 1 -93 4 -96 6 -3 2 -6
23 -5 47 2 60 -12 88 -45 88 -39 0 -50 -18 -50 -82 l0 -58 -380 0 -380 0 0 51
c0 28 -5 59 -10 70 -11 20 -45 25 -69 10z m1255 -1196 c2 -449 0 -493 -16
-530 -21 -48 -49 -79 -93 -102 -29 -16 -89 -17 -687 -17 -602 -1 -659 1 -701
17 -53 20 -79 46 -102 105 -15 38 -17 95 -17 526 0 314 4 486 10 488 5 2 369
3 807 3 l798 0 1 -490z"/>
<path d="M962 1157 c-6 -7 -10 -42 -10 -78 1 -37 -2 -70 -5 -76 -3 -5 -79 -10
-177 -10 -94 -1 -174 -4 -177 -7 -3 -3 -7 -17 -8 -30 -3 -22 2 -26 28 -30 18
-3 203 -4 412 -3 l380 2 3 24 c2 13 -1 28 -6 33 -5 5 -88 10 -191 10 l-181 0
0 73 c0 40 -3 80 -6 89 -7 19 -47 21 -62 3z"/>
<path d="M817 805 c-9 -8 -23 -38 -32 -67 -36 -108 -116 -248 -174 -302 -34
-33 -40 -70 -13 -84 24 -13 40 -5 76 36 94 106 206 322 206 397 0 34 -38 46
-63 20z"/>
<path d="M1113 813 c-19 -7 -16 -33 11 -104 42 -111 127 -252 202 -335 29 -31
54 -37 70 -17 21 28 17 45 -21 86 -72 79 -195 292 -195 339 0 30 -33 45 -67
31z"/>
</g>
</svg>
